<?xml version="1.0" encoding="utf-8"?>
<!-- Generator: Adobe Illustrator 22.1.0, SVG Export Plug-In . SVG Version: 6.00 Build 0)  -->
<svg version="1.1" id="Layer_1" xmlns="http://www.w3.org/2000/svg" xmlns:xlink="http://www.w3.org/1999/xlink" x="0px" y="0px"
	 viewBox="0 0 120.7 33.8" style="enable-background:new 0 0 120.7 33.8;" xml:space="preserve">
<style type="text/css">
	.st0{fill:#FFFFFF;}
</style>
<title>plated-logo-large</title>
<g>
	<path id="XMLID_1963_" class="st0" d="M2.2,24.3C0.7,22.7,0,20.7,0,18.2c0-2.7,0.8-4.9,2.5-6.7c1.7-1.8,3.8-2.7,6.4-2.7
		c1.7,0,3.1,0.4,4.2,1.1s1.6,1.6,1.6,2.8c0,0.7-0.2,1.3-0.6,1.7c-0.4,0.4-1,0.7-1.6,0.7c-0.7,0-1.3-0.3-1.7-0.8
		c-0.4-0.6-0.6-1.2-0.6-1.9c0-0.3,0.1-0.7,0.3-1c0.2-0.4,0.3-0.6,0.3-0.6c0-0.2-0.3-0.4-0.7-0.6C9.8,9.7,9.4,9.7,8.9,9.7
		c-1.3,0-2.3,0.6-3.1,1.9c-0.8,1.3-1.2,2.9-1.2,5.1c0,2.2,0.5,4,1.5,5.3s2.3,1.9,3.9,1.9c2,0,3.5-0.9,4.6-2.8l0.4,0.2
		c-1.6,3.6-4,5.5-7.3,5.5C5.5,26.7,3.6,25.9,2.2,24.3z"/>
	<path id="XMLID_1948_" class="st0" d="M15.7,25.5l0.6,0c0.6-0.1,1-0.1,1.2-0.2c0.2-0.1,0.3-0.2,0.3-0.5V14.5c0-1.2-0.1-1.9-0.3-2.2
		c-0.2-0.3-0.6-0.6-1.3-0.8l-0.8-0.2l0-0.5l6.6-1.9v16c0,0.2,0.1,0.3,0.3,0.4c0.2,0.1,0.7,0.2,1.4,0.2l0.5,0l0.1,0.6h-8.9L15.7,25.5
		z M17.8,5.4C17.3,4.9,17,4.3,17,3.5s0.2-1.4,0.7-1.9c0.5-0.6,1.1-0.8,1.9-0.8c0.8,0,1.5,0.3,1.9,0.8c0.5,0.6,0.7,1.2,0.7,1.9
		s-0.2,1.4-0.7,1.9c-0.5,0.6-1.1,0.8-1.9,0.8C18.9,6.3,18.2,6,17.8,5.4z"/>
	<path id="XMLID_1918_" class="st0" d="M26.8,21.5l0.2-10l-3-0.1l0,0l6.5-6.1l0.6,0.1l0,4h5.1l-0.5,2H31l-0.2,9.3
		c0,1.2,0.2,2,0.7,2.6c0.5,0.5,1.2,0.8,2.1,0.8c1.1,0,2.1-0.4,3.1-1.1l0.1,0.5c-1.9,2.1-3.7,3.1-5.7,3.1
		C28.2,26.6,26.7,24.9,26.8,21.5z"/>
	<path id="XMLID_1907_" class="st0" d="M39.3,33.1c-0.5-0.4-0.8-1-0.8-1.7c0-0.5,0.2-1,0.5-1.4c0.4-0.6,1-0.8,1.7-0.8
		c1.3,0,2.1,0.7,2.4,2c1,0,2-3.7,1.9-4.5l-5.4-14.6c-0.4-0.8-0.6-1.3-0.9-1.5c-0.2-0.2-1.3-0.6-1.3-0.6l-0.1-0.6h8.7L46,10l-0.7,0.1
		c-0.6,0.1-1,0.2-1.1,0.5c-0.1,0.3-0.1,0.7,0.1,1.2l3.9,9.5l2.5-7.2c0.5-1.6,0.7-2.6,0.6-3c-0.1-0.5-0.7-0.8-1.8-0.9L48.7,10
		l-0.1-0.6h6.7L55.2,10l-0.7,0.1c-0.7,0.1-1.2,0.3-1.5,0.8c-0.3,0.4-0.8,1.6-1.4,3.4l-2.3,6.5c-1.3,3.6-2.3,7.1-4.4,10.3
		c-0.4,0.7-0.8,1.2-1,1.4c-0.7,0.8-1.6,1.2-2.7,1.2C40.4,33.8,39.8,33.6,39.3,33.1z"/>
	<path id="XMLID_1621_" class="st0" d="M56.1,24.3c-1.5-1.6-2.2-3.6-2.2-6.1c0-2.7,0.8-4.9,2.5-6.7c1.7-1.8,3.8-2.7,6.4-2.7
		c1.7,0,3.1,0.4,4.2,1.1s1.6,1.6,1.6,2.8c0,0.7-0.2,1.3-0.6,1.7c-0.4,0.4-1,0.7-1.6,0.7c-0.7,0-1.3-0.3-1.7-0.8
		c-0.4-0.6-0.6-1.2-0.6-1.9c0-0.3,0.1-0.7,0.3-1c0.2-0.4,0.3-0.6,0.3-0.6c0-0.2-0.3-0.4-0.7-0.6s-0.8-0.3-1.3-0.3
		c-1.3,0-2.3,0.6-3.1,1.9c-0.8,1.3-1.2,2.9-1.2,5.1c0,2.2,0.5,4,1.5,5.3s2.3,1.9,3.9,1.9c2,0,3.5-0.9,4.6-2.8l0.4,0.2
		c-1.6,3.6-4,5.5-7.3,5.5C59.4,26.7,57.6,25.9,56.1,24.3z"/>
	<path id="XMLID_1617_" class="st0" d="M69.4,25.5l0.6,0c0.6-0.1,1-0.1,1.1-0.2c0.2-0.1,0.3-0.2,0.3-0.5V4.7c0-0.7-0.1-1.2-0.2-1.4
		c-0.1-0.3-0.5-0.5-1-0.6l-1.2-0.4l0.1-0.5L75.8,0v12l0.1,0c2.5-2.2,4.6-3.2,6.3-3.2c1.2,0,2.2,0.4,3,1.2c0.8,0.9,1.2,2.3,1.2,4.3
		v10.4c0,0.3,0.6,0.5,1.8,0.7l0.5,0l0.1,0.6H80l0.1-0.6l0.7,0c0.9-0.1,1.3-0.3,1.3-0.7v-9.4c0-1.3-0.3-2.3-0.8-2.8
		c-0.5-0.6-1.3-0.8-2.3-0.8c-1.2,0-2.3,0.4-3.3,1.2v11.9c0,0.3,0.5,0.5,1.6,0.6l0.7,0l0.1,0.6h-8.8L69.4,25.5z"/>
	<path id="XMLID_1539_" class="st0" d="M91,24.3c-1.5-1.6-2.2-3.7-2.2-6.1c0-2.7,0.8-4.9,2.5-6.7C93,9.7,95,8.8,97.5,8.8
		c2,0,3.5,0.5,4.6,1.6c1.1,1.1,1.7,2.4,1.7,4c0,0.4,0,0.7-0.1,1.1c-6.4-0.1-9.8-0.1-10.3-0.2c0,0.3-0.1,0.7-0.1,1.5
		c0,2.1,0.5,3.8,1.5,5.1c1,1.3,2.4,2,4,2c2,0,3.6-0.9,4.7-2.8l0.4,0.2c-1.6,3.6-4,5.5-7.4,5.5C94.3,26.7,92.5,25.9,91,24.3z
		 M99.6,14.6c0-1.4-0.2-2.6-0.6-3.6c-0.4-1-1.1-1.4-2-1.4c-0.9,0-1.7,0.5-2.4,1.4c-0.7,0.9-1.1,2.1-1.3,3.6L99.6,14.6z"/>
	<path id="XMLID_1537_" class="st0" d="M98.5,33c-0.7-0.5-1-1.2-1-2c0-0.6,0.2-1.1,0.6-1.6c0.4-0.4,0.9-0.7,1.6-0.7
		c0.8,0,1.5,0.4,1.9,1.2s0.3,1.6-0.2,2.6c0.6,0.1,1,0.2,1.2,0.2c0.6-0.2,1.1-1,1.6-2.5c0.5-1.5,1-4,1.7-7.7l2-11.1l-3.1-0.1l0.6-1.7
		l3.2-0.4c0.8-3.2,1.8-5.5,3.1-6.8c1.3-1.4,3.1-2.1,5.2-2.1c1.2,0,2.1,0.3,2.8,0.9c0.7,0.6,1.1,1.3,1.1,2.2c0,0.7-0.2,1.2-0.7,1.7
		c-0.4,0.4-1,0.7-1.6,0.7c-1,0-1.7-0.5-2-1.5s0-1.8,0.7-2.6c-0.8-0.2-1.3-0.3-1.6-0.3c-1.3,0.4-1.9,3.1-2.8,8l3.6,0l-0.4,1.9
		l-3.4,0.1L110.3,22c-1.4,6-3.1,8.1-4.7,9.9c-1.2,1.3-2.7,1.9-4.5,1.9C100,33.8,99.2,33.5,98.5,33z"/>
	<g>
		<path class="st0" d="M113.6,26.7c-0.5-0.5-0.8-1.1-0.8-1.9c0-0.7,0.3-1.4,0.8-1.9c0.5-0.5,1.1-0.8,1.9-0.8c0.7,0,1.4,0.3,1.9,0.8
			c0.5,0.5,0.8,1.2,0.8,1.9c0,0.7-0.3,1.4-0.8,1.9s-1.1,0.8-1.9,0.8C114.8,27.5,114.1,27.2,113.6,26.7z M117.2,23.1
			c-0.5-0.5-1-0.7-1.7-0.7c-0.7,0-1.2,0.2-1.7,0.7c-0.5,0.5-0.7,1.1-0.7,1.7c0,0.7,0.2,1.2,0.7,1.7c0.5,0.5,1,0.7,1.7,0.7
			c0.7,0,1.2-0.2,1.7-0.7c0.5-0.5,0.7-1.1,0.7-1.7C117.9,24.2,117.7,23.6,117.2,23.1z M115.1,26.2h-0.7v-2.8h1.2
			c0.4,0,0.6,0.1,0.8,0.2c0.2,0.2,0.3,0.4,0.3,0.7c0,0.4-0.2,0.7-0.5,0.8l0.7,1.1h-0.8l-0.5-0.9l-0.4,0V26.2z M115.5,24.8
			c0.4,0,0.5-0.2,0.5-0.4c0-0.3-0.2-0.4-0.5-0.4h-0.4v0.9L115.5,24.8z"/>
	</g>
</g>
</svg>
